# Blender v3.2.2 OBJ File
# www.blender.org
o Front
v -0.000000 0.372240 0.045170
v -0.290894 -0.102787 0.213117
v 0.290894 -0.102787 0.213117
vn 0.0000 0.3333 0.9428
s 1
f 2//1 3//1 1//1
o Border
v -0.037033 0.379051 -0.021381
v -0.000000 0.372240 0.045170
v 0.037033 0.379051 -0.021381
v -0.032491 0.405004 0.005715
v -0.011296 0.405004 -0.030996
v -0.007021 0.438273 -0.004054
v 0.021195 0.405004 0.025281
v -0.021195 0.405004 0.025281
v -0.000000 0.438273 0.008108
v 0.011296 0.405004 -0.030996
v 0.032491 0.405004 0.005715
v 0.007021 0.438273 -0.004054
v -0.334182 -0.106192 0.150178
v -0.297149 -0.166667 0.171559
v -0.290894 -0.102787 0.213117
v -0.345280 -0.140389 0.161830
v -0.345280 -0.105778 0.186304
v -0.362529 -0.142269 0.201199
v -0.312789 -0.158836 0.205062
v -0.333984 -0.158836 0.168352
v -0.355508 -0.153735 0.205252
v -0.333984 -0.105778 0.205870
v -0.312789 -0.140389 0.218107
v -0.355508 -0.142269 0.213360
v 0.334182 -0.106192 0.150178
v 0.290894 -0.102787 0.213117
v 0.297149 -0.166667 0.171559
v 0.345280 -0.105778 0.186304
v 0.345280 -0.140389 0.161830
v 0.362529 -0.142269 0.201199
v 0.312789 -0.140389 0.218106
v 0.333984 -0.105778 0.205870
v 0.355508 -0.142269 0.213360
v 0.333984 -0.158836 0.168352
v 0.312789 -0.158836 0.205062
v 0.355508 -0.153735 0.205252
v -0.037033 -0.106192 -0.364500
v 0.037033 -0.106192 -0.364500
v -0.000000 -0.166667 -0.343119
v -0.011297 -0.105778 -0.392173
v -0.032491 -0.140389 -0.379936
v -0.007021 -0.142269 -0.414559
v 0.032491 -0.140389 -0.379936
v 0.011296 -0.105778 -0.392173
v 0.007021 -0.142269 -0.414559
v -0.021195 -0.158836 -0.373414
v 0.021195 -0.158836 -0.373414
v -0.000000 -0.153735 -0.410505
v -0.037033 0.379051 -0.021381
v -0.334182 -0.106192 0.150178
v -0.037033 -0.106192 -0.364500
v 0.037033 0.379051 -0.021381
v 0.334182 -0.106192 0.150178
v 0.037033 -0.106192 -0.364500
vn -0.8078 0.5895 0.0055
vn -0.3991 0.5895 -0.7023
vn -0.7649 0.4688 -0.4416
vn -0.4035 0.5844 0.7040
vn -0.4516 0.8533 -0.2607
vn 0.4035 0.5844 0.7040
vn -0.0000 0.4482 0.8939
vn 0.4516 0.8533 -0.2607
vn -0.0000 0.8533 0.5214
vn 0.3991 0.5895 -0.7023
vn 0.8078 0.5895 0.0055
vn 0.7649 0.4688 -0.4416
vn -0.8836 -0.2017 -0.4226
vn -0.8836 0.4656 0.0493
vn -0.8928 0.2601 -0.3678
vn -0.4845 -0.8534 -0.1921
vn -0.9978 -0.0386 0.0546
vn -0.0759 -0.8534 0.5156
vn -0.1278 -0.9890 0.0738
vn -0.5462 -0.0386 0.8368
vn -0.5462 -0.7761 0.3153
vn -0.4757 0.4666 0.7457
vn -0.0721 -0.1924 0.9787
vn -0.1079 0.2720 0.9562
vn 0.8836 0.4656 0.0493
vn 0.8836 -0.2017 -0.4226
vn 0.8928 0.2601 -0.3678
vn 0.4757 0.4666 0.7457
vn 0.9978 -0.0386 0.0546
vn 0.0721 -0.1924 0.9787
vn 0.1079 0.2720 0.9562
vn 0.0759 -0.8534 0.5156
vn 0.5462 -0.0386 0.8368
vn 0.4845 -0.8534 -0.1921
vn 0.1278 -0.9890 0.0738
vn 0.5462 -0.7761 0.3153
vn -0.3991 0.4656 -0.7899
vn -0.8078 -0.2017 -0.5539
vn -0.7649 0.2601 -0.5892
vn 0.3991 0.4656 -0.7899
vn -0.4516 -0.0386 -0.8914
vn 0.8078 -0.2017 -0.5539
vn 0.7649 0.2601 -0.5892
vn 0.4086 -0.8534 -0.3235
vn 0.4516 -0.0386 -0.8914
vn -0.4086 -0.8534 -0.3235
vn -0.0000 -0.9890 -0.1476
vn -0.0000 -0.7761 -0.6307
vn -0.8165 0.3333 -0.4714
vn 0.8165 0.3333 -0.4714
s 1
f 7//2 8//3 4//4
f 11//5 9//6 7//2
f 10//7 11//5 5//8
f 10//7 15//9 12//10
f 13//11 14//12 6//13
f 13//11 9//6 15//9
f 9//6 12//10 15//9
f 19//14 20//15 16//16
f 23//17 21//18 19//14
f 22//19 23//17 17//20
f 22//19 27//21 24//22
f 25//23 26//24 18//25
f 25//23 21//18 27//21
f 21//18 24//22 27//21
f 31//26 32//27 28//28
f 35//29 33//30 31//26
f 34//31 35//29 29//32
f 38//33 36//34 34//31
f 37//35 38//33 30//36
f 32//27 39//37 37//35
f 33//30 36//34 39//37
f 43//38 44//39 40//40
f 47//41 45//42 43//38
f 46//43 47//41 41//44
f 50//45 48//46 46//43
f 49//47 50//45 42//48
f 49//47 45//42 51//49
f 45//42 48//46 51//49
f 16//16 7//2 4//4
f 20//15 11//5 7//2
f 25//23 5//8 11//5
f 5//8 35//29 10//7
f 35//29 14//12 10//7
f 14//12 28//28 6//13
f 41//44 13//11 6//13
f 13//11 43//38 8//3
f 43//38 4//4 8//3
f 30//36 22//19 17//20
f 38//33 26//24 22//19
f 34//31 18//25 26//24
f 42//48 37//35 30//36
f 37//35 46//43 32//27
f 46//43 28//28 32//27
f 40//40 19//14 16//16
f 19//14 49//47 23//17
f 49//47 17//20 23//17
f 7//2 9//6 8//3
f 11//5 12//10 9//6
f 10//7 12//10 11//5
f 10//7 14//12 15//9
f 13//11 15//9 14//12
f 13//11 8//3 9//6
f 19//14 21//18 20//15
f 23//17 24//22 21//18
f 22//19 24//22 23//17
f 22//19 26//24 27//21
f 25//23 27//21 26//24
f 25//23 20//15 21//18
f 31//26 33//30 32//27
f 35//29 36//34 33//30
f 34//31 36//34 35//29
f 38//33 39//37 36//34
f 37//35 39//37 38//33
f 32//27 33//30 39//37
f 43//38 45//42 44//39
f 47//41 48//46 45//42
f 46//43 48//46 47//41
f 50//45 51//49 48//46
f 49//47 51//49 50//45
f 49//47 44//39 45//42
f 16//16 20//15 7//2
f 20//15 25//23 11//5
f 25//23 18//25 5//8
f 5//8 29//32 35//29
f 35//29 31//26 14//12
f 14//12 31//26 28//28
f 41//44 47//41 13//11
f 13//11 47//41 43//38
f 43//38 40//40 4//4
f 30//36 38//33 22//19
f 38//33 34//31 26//24
f 34//31 29//32 18//25
f 42//48 50//45 37//35
f 37//35 50//45 46//43
f 46//43 41//44 28//28
f 40//40 44//39 19//14
f 19//14 44//39 49//47
f 49//47 42//48 17//20
f 53//50 52//50 54//50
f 56//51 57//51 55//51
o Bottom
v -0.297149 -0.166667 0.171559
v 0.297149 -0.166667 0.171559
v -0.000000 -0.166667 -0.343119
vn 0.0000 -1.0000 -0.0000
s 1
f 59//52 58//52 60//52
