# Blender v3.2.2 OBJ File: 'cubePiece.blend'
# www.blender.org
o Border
v 0.900000 0.949934 -0.986640
v 0.949934 0.900000 -0.986640
v 0.900000 0.900000 -1.000000
v 0.947513 0.974062 -0.947513
v 0.947513 0.947513 -0.974062
v 0.949934 0.986640 -0.900000
v 0.900000 0.986640 -0.949934
v 0.900000 1.000000 -0.900000
v 0.986640 0.949934 -0.900000
v 0.986640 0.900000 -0.949934
v 1.000000 0.900000 -0.900000
v 0.974062 0.947513 -0.947513
v 0.900000 -0.986640 -0.949934
v 0.949934 -0.986640 -0.900000
v 0.900000 -1.000000 -0.900000
v 0.900000 -0.949934 -0.986640
v 0.947513 -0.974062 -0.947513
v 0.949934 -0.900000 -0.986640
v 0.900000 -0.900000 -1.000000
v 0.986640 -0.900000 -0.949934
v 0.947513 -0.947513 -0.974062
v 0.986640 -0.949934 -0.900000
v 1.000000 -0.900000 -0.900000
v 0.974062 -0.947513 -0.947513
v 0.986640 0.949934 0.900000
v 0.986640 0.900000 0.949934
v 1.000000 0.900000 0.900000
v 0.947513 0.974062 0.947513
v 0.974062 0.947513 0.947513
v 0.900000 0.986640 0.949934
v 0.949934 0.986640 0.900000
v 0.900000 1.000000 0.900000
v 0.900000 0.949934 0.986640
v 0.949934 0.900000 0.986640
v 0.900000 0.900000 1.000000
v 0.947513 0.947513 0.974062
v 0.986640 -0.900000 0.949934
v 0.986640 -0.949934 0.900000
v 1.000000 -0.900000 0.900000
v 0.949934 -0.900000 0.986640
v 0.974062 -0.947513 0.947513
v 0.900000 -0.949934 0.986640
v 0.900000 -0.900000 1.000000
v 0.947513 -0.974062 0.947513
v 0.947513 -0.947513 0.974062
v 0.949934 -0.986640 0.900000
v 0.900000 -0.986640 0.949934
v 0.900000 -1.000000 0.900000
v -0.949934 0.900000 -0.986640
v -0.900000 0.949934 -0.986640
v -0.900000 0.900000 -1.000000
v -0.986640 0.900000 -0.949934
v -0.947513 0.947513 -0.974062
v -0.986640 0.949934 -0.900000
v -1.000000 0.900000 -0.900000
v -0.947513 0.974062 -0.947513
v -0.974062 0.947513 -0.947513
v -0.900000 0.986640 -0.949934
v -0.949934 0.986640 -0.900000
v -0.900000 1.000000 -0.900000
v -0.986640 -0.900000 -0.949934
v -0.986640 -0.949934 -0.900000
v -1.000000 -0.900000 -0.900000
v -0.949934 -0.900000 -0.986640
v -0.974062 -0.947513 -0.947513
v -0.900000 -0.949934 -0.986640
v -0.900000 -0.900000 -1.000000
v -0.947513 -0.974062 -0.947513
v -0.947513 -0.947513 -0.974062
v -0.949934 -0.986640 -0.900000
v -0.900000 -0.986640 -0.949934
v -0.900000 -1.000000 -0.900000
v -0.986640 0.900000 0.949934
v -0.986640 0.949934 0.900000
v -1.000000 0.900000 0.900000
v -0.949934 0.900000 0.986640
v -0.974062 0.947513 0.947513
v -0.900000 0.949934 0.986640
v -0.900000 0.900000 1.000000
v -0.947513 0.974062 0.947513
v -0.947513 0.947513 0.974062
v -0.949934 0.986640 0.900000
v -0.900000 0.986640 0.949934
v -0.900000 1.000000 0.900000
v -0.900000 -0.986640 0.949934
v -0.949934 -0.986640 0.900000
v -0.900000 -1.000000 0.900000
v -0.900000 -0.949934 0.986640
v -0.947513 -0.974062 0.947513
v -0.949934 -0.900000 0.986640
v -0.900000 -0.900000 1.000000
v -0.986640 -0.900000 0.949934
v -0.947513 -0.947513 0.974062
v -0.986640 -0.949934 0.900000
v -1.000000 -0.900000 0.900000
v -0.974062 -0.947513 0.947513
v 1.000000 -0.870000 -0.870000
v 1.000000 0.870000 -0.870000
v 1.000000 0.870000 0.870000
v 1.000000 -0.870000 0.870000
v 0.870000 -0.870000 -1.000000
v -0.870000 -0.870000 -1.000000
v 0.870000 0.870000 -1.000000
v -0.870000 0.870000 -1.000000
v -1.000000 -0.870000 -0.870000
v -1.000000 -0.870000 0.870000
v -1.000000 0.870000 0.870000
v -1.000000 0.870000 -0.870000
v -0.870000 0.870000 1.000000
v -0.870000 -0.870000 1.000000
v 0.870000 -0.870000 1.000000
v 0.870000 0.870000 1.000000
v -0.870000 0.870000 -1.000000
v 0.870000 -0.870000 -1.000000
v -0.870000 -0.870000 -1.000000
v 0.870000 0.870000 -1.000000
v -1.000000 0.870000 0.870000
v -1.000000 -0.870000 -0.870000
v -1.000000 -0.870000 0.870000
v -1.000000 0.870000 -0.870000
v -0.900000 1.000000 -0.900000
v 0.900000 1.000000 0.900000
v 0.900000 1.000000 -0.900000
v -0.900000 1.000000 0.900000
vn 0.1211 0.4917 -0.8623
vn 0.4917 0.1211 -0.8623
vn 0.1280 0.1280 -0.9835
vn 0.4474 0.7744 -0.4474
vn 0.4474 0.4474 -0.7744
vn 0.4917 0.8623 -0.1211
vn 0.1211 0.8623 -0.4917
vn 0.1709 0.9703 -0.1709
vn 0.8623 0.4917 -0.1211
vn 0.8623 0.1211 -0.4917
vn 0.9835 0.1280 -0.1280
vn 0.7744 0.4474 -0.4474
vn 0.1211 -0.8623 -0.4917
vn 0.4917 -0.8623 -0.1211
vn 0.1709 -0.9703 -0.1709
vn 0.1211 -0.4917 -0.8623
vn 0.4474 -0.7744 -0.4474
vn 0.4917 -0.1211 -0.8623
vn 0.1280 -0.1280 -0.9835
vn 0.8623 -0.1211 -0.4917
vn 0.4474 -0.4474 -0.7744
vn 0.8623 -0.4917 -0.1211
vn 0.9835 -0.1280 -0.1280
vn 0.7744 -0.4474 -0.4474
vn 0.8623 0.4917 0.1211
vn 0.8623 0.1211 0.4917
vn 0.9835 0.1280 0.1280
vn 0.4474 0.7744 0.4474
vn 0.7744 0.4474 0.4474
vn 0.1211 0.8623 0.4917
vn 0.4917 0.8623 0.1211
vn 0.1709 0.9703 0.1709
vn 0.1211 0.4917 0.8623
vn 0.4917 0.1211 0.8623
vn 0.1280 0.1280 0.9835
vn 0.4474 0.4474 0.7744
vn 0.8623 -0.1211 0.4917
vn 0.8623 -0.4917 0.1211
vn 0.9835 -0.1280 0.1280
vn 0.4917 -0.1211 0.8623
vn 0.7744 -0.4474 0.4474
vn 0.1211 -0.4917 0.8623
vn 0.1280 -0.1280 0.9835
vn 0.4474 -0.7744 0.4474
vn 0.4474 -0.4474 0.7744
vn 0.4917 -0.8623 0.1211
vn 0.1211 -0.8623 0.4917
vn 0.1709 -0.9703 0.1709
vn -0.4917 0.1211 -0.8623
vn -0.1211 0.4917 -0.8623
vn -0.1280 0.1280 -0.9835
vn -0.8623 0.1211 -0.4917
vn -0.4474 0.4474 -0.7744
vn -0.8623 0.4917 -0.1211
vn -0.9835 0.1280 -0.1280
vn -0.4474 0.7744 -0.4474
vn -0.7744 0.4474 -0.4474
vn -0.1211 0.8623 -0.4917
vn -0.4917 0.8623 -0.1211
vn -0.1709 0.9703 -0.1709
vn -0.8623 -0.1211 -0.4917
vn -0.8623 -0.4917 -0.1211
vn -0.9835 -0.1280 -0.1280
vn -0.4917 -0.1211 -0.8623
vn -0.7744 -0.4474 -0.4474
vn -0.1211 -0.4917 -0.8623
vn -0.1280 -0.1280 -0.9835
vn -0.4474 -0.7744 -0.4474
vn -0.4474 -0.4474 -0.7744
vn -0.4917 -0.8623 -0.1211
vn -0.1211 -0.8623 -0.4917
vn -0.1709 -0.9703 -0.1709
vn -0.8623 0.1211 0.4917
vn -0.8623 0.4917 0.1211
vn -0.9835 0.1280 0.1280
vn -0.4917 0.1211 0.8623
vn -0.7744 0.4474 0.4474
vn -0.1211 0.4917 0.8623
vn -0.1280 0.1280 0.9835
vn -0.4474 0.7744 0.4474
vn -0.4474 0.4474 0.7744
vn -0.4917 0.8623 0.1211
vn -0.1211 0.8623 0.4917
vn -0.1709 0.9703 0.1709
vn -0.1211 -0.8623 0.4917
vn -0.4917 -0.8623 0.1211
vn -0.1709 -0.9703 0.1709
vn -0.1211 -0.4917 0.8623
vn -0.4474 -0.7744 0.4474
vn -0.4917 -0.1211 0.8623
vn -0.1280 -0.1280 0.9835
vn -0.8623 -0.1211 0.4917
vn -0.4474 -0.4474 0.7744
vn -0.8623 -0.4917 0.1211
vn -0.9835 -0.1280 0.1280
vn -0.7744 -0.4474 0.4474
vn 1.0000 0.0000 0.0000
vn 0.0000 0.0000 -1.0000
vn -1.0000 0.0000 0.0000
vn 0.0000 -0.0000 1.0000
vn 0.0000 1.0000 0.0000
s 1
f 1//1 2//2 3//3
f 1//1 4//4 5//5
f 6//6 7//7 8//8
f 9//9 4//4 6//6
f 10//10 9//9 11//11
f 2//2 12//12 10//10
f 5//5 4//4 12//12
f 13//13 14//14 15//15
f 16//16 17//17 13//13
f 18//18 16//16 19//19
f 20//20 21//21 18//18
f 22//22 20//20 23//23
f 22//22 17//17 24//24
f 17//17 21//21 24//24
f 25//25 26//26 27//27
f 25//25 28//28 29//29
f 30//30 31//31 32//32
f 33//33 28//28 30//30
f 34//34 33//33 35//35
f 26//26 36//36 34//34
f 29//29 28//28 36//36
f 37//37 38//38 39//39
f 40//40 41//41 37//37
f 42//42 40//40 43//43
f 42//42 44//44 45//45
f 46//46 47//47 48//48
f 38//38 44//44 46//46
f 41//41 45//45 44//44
f 49//49 50//50 51//51
f 52//52 53//53 49//49
f 54//54 52//52 55//55
f 54//54 56//56 57//57
f 58//58 59//59 60//60
f 50//50 56//56 58//58
f 53//53 57//57 56//56
f 61//61 62//62 63//63
f 64//64 65//65 61//61
f 66//66 64//64 67//67
f 66//66 68//68 69//69
f 70//70 71//71 72//72
f 62//62 68//68 70//70
f 65//65 69//69 68//68
f 73//73 74//74 75//75
f 76//76 77//77 73//73
f 78//78 76//76 79//79
f 78//78 80//80 81//81
f 82//82 83//83 84//84
f 74//74 80//80 82//82
f 77//77 81//81 80//80
f 85//85 86//86 87//87
f 88//88 89//89 85//85
f 90//90 88//88 91//91
f 92//92 93//93 90//90
f 94//94 92//92 95//95
f 94//94 89//89 96//96
f 89//89 93//93 96//96
f 87//87 70//70 72//72
f 86//86 62//62 70//70
f 94//94 63//63 62//62
f 72//72 13//13 15//15
f 71//71 16//16 13//13
f 66//66 19//19 16//16
f 23//23 10//10 11//11
f 20//20 2//2 10//10
f 18//18 3//3 2//2
f 79//79 90//90 91//91
f 76//76 92//92 90//90
f 73//73 95//95 92//92
f 43//43 34//34 35//35
f 40//40 26//26 34//34
f 37//37 27//27 26//26
f 67//67 49//49 51//51
f 64//64 52//52 49//49
f 61//61 55//55 52//52
f 84//84 30//30 32//32
f 83//83 33//33 30//30
f 78//78 35//35 33//33
f 32//32 6//6 8//8
f 31//31 9//9 6//6
f 25//25 11//11 9//9
f 48//48 85//85 87//87
f 47//47 88//88 85//85
f 42//42 91//91 88//88
f 60//60 82//82 84//84
f 59//59 74//74 82//82
f 54//54 75//75 74//74
f 8//8 58//58 60//60
f 7//7 50//50 58//58
f 1//1 51//51 50//50
f 15//15 46//46 48//48
f 14//14 38//38 46//46
f 22//22 39//39 38//38
f 97//97 11//11 98//97
f 99//97 39//39 100//97
f 98//97 27//27 99//97
f 100//97 23//23 97//97
f 101//98 67//67 102//98
f 103//98 19//19 101//98
f 102//98 51//51 104//98
f 104//98 3//3 103//98
f 105//99 95//95 106//99
f 106//99 75//75 107//99
f 108//99 63//63 105//99
f 107//99 55//55 108//99
f 109//100 91//91 110//100
f 111//100 35//35 112//100
f 112//100 79//79 109//100
f 110//100 43//43 111//100
f 1//1 5//5 2//2
f 1//1 7//7 4//4
f 6//6 4//4 7//7
f 9//9 12//12 4//4
f 10//10 12//12 9//9
f 2//2 5//5 12//12
f 13//13 17//17 14//14
f 16//16 21//21 17//17
f 18//18 21//21 16//16
f 20//20 24//24 21//21
f 22//22 24//24 20//20
f 22//22 14//14 17//17
f 25//25 29//29 26//26
f 25//25 31//31 28//28
f 30//30 28//28 31//31
f 33//33 36//36 28//28
f 34//34 36//36 33//33
f 26//26 29//29 36//36
f 37//37 41//41 38//38
f 40//40 45//45 41//41
f 42//42 45//45 40//40
f 42//42 47//47 44//44
f 46//46 44//44 47//47
f 38//38 41//41 44//44
f 49//49 53//53 50//50
f 52//52 57//57 53//53
f 54//54 57//57 52//52
f 54//54 59//59 56//56
f 58//58 56//56 59//59
f 50//50 53//53 56//56
f 61//61 65//65 62//62
f 64//64 69//69 65//65
f 66//66 69//69 64//64
f 66//66 71//71 68//68
f 70//70 68//68 71//71
f 62//62 65//65 68//68
f 73//73 77//77 74//74
f 76//76 81//81 77//77
f 78//78 81//81 76//76
f 78//78 83//83 80//80
f 82//82 80//80 83//83
f 74//74 77//77 80//80
f 85//85 89//89 86//86
f 88//88 93//93 89//89
f 90//90 93//93 88//88
f 92//92 96//96 93//93
f 94//94 96//96 92//92
f 94//94 86//86 89//89
f 87//87 86//86 70//70
f 86//86 94//94 62//62
f 94//94 95//95 63//63
f 72//72 71//71 13//13
f 71//71 66//66 16//16
f 66//66 67//67 19//19
f 23//23 20//20 10//10
f 20//20 18//18 2//2
f 18//18 19//19 3//3
f 79//79 76//76 90//90
f 76//76 73//73 92//92
f 73//73 75//75 95//95
f 43//43 40//40 34//34
f 40//40 37//37 26//26
f 37//37 39//39 27//27
f 67//67 64//64 49//49
f 64//64 61//61 52//52
f 61//61 63//63 55//55
f 84//84 83//83 30//30
f 83//83 78//78 33//33
f 78//78 79//79 35//35
f 32//32 31//31 6//6
f 31//31 25//25 9//9
f 25//25 27//27 11//11
f 48//48 47//47 85//85
f 47//47 42//42 88//88
f 42//42 43//43 91//91
f 60//60 59//59 82//82
f 59//59 54//54 74//74
f 54//54 55//55 75//75
f 8//8 7//7 58//58
f 7//7 1//1 50//50
f 1//1 3//3 51//51
f 15//15 14//14 46//46
f 14//14 22//22 38//38
f 22//22 23//23 39//39
f 97//97 23//23 11//11
f 99//97 27//27 39//39
f 98//97 11//11 27//27
f 100//97 39//39 23//23
f 101//98 19//19 67//67
f 103//98 3//3 19//19
f 102//98 67//67 51//51
f 104//98 51//51 3//3
f 105//99 63//63 95//95
f 106//99 95//95 75//75
f 108//99 55//55 63//63
f 107//99 75//75 55//55
f 109//100 79//79 91//91
f 111//100 43//43 35//35
f 112//100 35//35 79//79
f 110//100 91//91 43//43
f 113//98 114//98 115//98
f 113//98 116//98 114//98
f 117//99 118//99 119//99
f 117//99 120//99 118//99
f 121//101 122//101 123//101
f 121//101 124//101 122//101
o Right
v 1.000000 0.870000 -0.870000
v 1.000000 -0.870000 0.870000
v 1.000000 -0.870000 -0.870000
v 1.000000 0.870000 0.870000
vn 1.0000 0.0000 0.0000
s 1
f 125//102 126//102 127//102
f 125//102 128//102 126//102
o Front
v 0.870000 0.870000 1.000000
v -0.870000 -0.870000 1.000000
v 0.870000 -0.870000 1.000000
v -0.870000 0.870000 1.000000
vn 0.0000 -0.0000 1.0000
s 1
f 129//103 130//103 131//103
f 129//103 132//103 130//103
o Bottom
v 0.900000 -1.000000 -0.900000
v -0.900000 -1.000000 0.900000
v -0.900000 -1.000000 -0.900000
v 0.900000 -1.000000 0.900000
vn 0.0000 -1.0000 -0.0000
s 1
f 133//104 134//104 135//104
f 133//104 136//104 134//104
