# Blender v3.2.2 OBJ File: 'cubePiece.blend'
# www.blender.org
o Border
v 1.000000 0.870000 -0.870000
v 1.000000 -0.870000 0.870000
v 1.000000 -0.870000 -0.870000
v 1.000000 0.870000 0.870000
v 0.900000 0.949934 -0.986640
v 0.949934 0.900000 -0.986640
v 0.900000 0.900000 -1.000000
v 0.947513 0.974062 -0.947513
v 0.947513 0.947513 -0.974062
v 0.949934 0.986640 -0.900000
v 0.900000 0.986640 -0.949934
v 0.900000 1.000000 -0.900000
v 0.986640 0.949934 -0.900000
v 0.986640 0.900000 -0.949934
v 1.000000 0.900000 -0.900000
v 0.974062 0.947513 -0.947513
v 0.900000 -0.986640 -0.949934
v 0.949934 -0.986640 -0.900000
v 0.900000 -1.000000 -0.900000
v 0.900000 -0.949934 -0.986640
v 0.947513 -0.974062 -0.947513
v 0.949934 -0.900000 -0.986640
v 0.900000 -0.900000 -1.000000
v 0.986640 -0.900000 -0.949934
v 0.947513 -0.947513 -0.974062
v 0.986640 -0.949934 -0.900000
v 1.000000 -0.900000 -0.900000
v 0.974062 -0.947513 -0.947513
v 0.986640 0.949934 0.900000
v 0.986640 0.900000 0.949934
v 1.000000 0.900000 0.900000
v 0.947513 0.974062 0.947513
v 0.974062 0.947513 0.947513
v 0.900000 0.986640 0.949934
v 0.949934 0.986640 0.900000
v 0.900000 1.000000 0.900000
v 0.900000 0.949934 0.986640
v 0.949934 0.900000 0.986640
v 0.900000 0.900000 1.000000
v 0.947513 0.947513 0.974062
v 0.986640 -0.900000 0.949934
v 0.986640 -0.949934 0.900000
v 1.000000 -0.900000 0.900000
v 0.949934 -0.900000 0.986640
v 0.974062 -0.947513 0.947513
v 0.900000 -0.949934 0.986640
v 0.900000 -0.900000 1.000000
v 0.947513 -0.974062 0.947513
v 0.947513 -0.947513 0.974062
v 0.949934 -0.986640 0.900000
v 0.900000 -0.986640 0.949934
v 0.900000 -1.000000 0.900000
v -0.949934 0.900000 -0.986640
v -0.900000 0.949934 -0.986640
v -0.900000 0.900000 -1.000000
v -0.986640 0.900000 -0.949934
v -0.947513 0.947513 -0.974062
v -0.986640 0.949934 -0.900000
v -1.000000 0.900000 -0.900000
v -0.947513 0.974062 -0.947513
v -0.974062 0.947513 -0.947513
v -0.900000 0.986640 -0.949934
v -0.949934 0.986640 -0.900000
v -0.900000 1.000000 -0.900000
v -0.986640 -0.900000 -0.949934
v -0.986640 -0.949934 -0.900000
v -1.000000 -0.900000 -0.900000
v -0.949934 -0.900000 -0.986640
v -0.974062 -0.947513 -0.947513
v -0.900000 -0.949934 -0.986640
v -0.900000 -0.900000 -1.000000
v -0.947513 -0.974062 -0.947513
v -0.947513 -0.947513 -0.974062
v -0.949934 -0.986640 -0.900000
v -0.900000 -0.986640 -0.949934
v -0.900000 -1.000000 -0.900000
v -0.986640 0.900000 0.949934
v -0.986640 0.949934 0.900000
v -1.000000 0.900000 0.900000
v -0.949934 0.900000 0.986640
v -0.974062 0.947513 0.947513
v -0.900000 0.949934 0.986640
v -0.900000 0.900000 1.000000
v -0.947513 0.974062 0.947513
v -0.947513 0.947513 0.974062
v -0.949934 0.986640 0.900000
v -0.900000 0.986640 0.949934
v -0.900000 1.000000 0.900000
v -0.900000 -0.986640 0.949934
v -0.949934 -0.986640 0.900000
v -0.900000 -1.000000 0.900000
v -0.900000 -0.949934 0.986640
v -0.947513 -0.974062 0.947513
v -0.949934 -0.900000 0.986640
v -0.900000 -0.900000 1.000000
v -0.986640 -0.900000 0.949934
v -0.947513 -0.947513 0.974062
v -0.986640 -0.949934 0.900000
v -1.000000 -0.900000 0.900000
v -0.974062 -0.947513 0.947513
v 1.000000 -0.870000 -0.870000
v 1.000000 0.870000 -0.870000
v 1.000000 0.870000 0.870000
v 1.000000 -0.870000 0.870000
v 0.870000 -0.870000 -1.000000
v -0.870000 -0.870000 -1.000000
v 0.870000 0.870000 -1.000000
v -0.870000 0.870000 -1.000000
v -1.000000 -0.870000 -0.870000
v -1.000000 -0.870000 0.870000
v -1.000000 0.870000 0.870000
v -1.000000 0.870000 -0.870000
v -0.870000 0.870000 1.000000
v -0.870000 -0.870000 1.000000
v 0.870000 -0.870000 1.000000
v 0.870000 0.870000 1.000000
v -0.870000 0.870000 -1.000000
v 0.870000 -0.870000 -1.000000
v -0.870000 -0.870000 -1.000000
v 0.870000 0.870000 -1.000000
v -1.000000 0.870000 0.870000
v -1.000000 -0.870000 -0.870000
v -1.000000 -0.870000 0.870000
v -1.000000 0.870000 -0.870000
v -0.900000 1.000000 -0.900000
v 0.900000 1.000000 0.900000
v 0.900000 1.000000 -0.900000
v -0.900000 1.000000 0.900000
vn 0.1211 0.4917 -0.8623
vn 0.4917 0.1211 -0.8623
vn 0.1280 0.1280 -0.9835
vn 0.4474 0.7744 -0.4474
vn 0.4474 0.4474 -0.7744
vn 0.4917 0.8623 -0.1211
vn 0.1211 0.8623 -0.4917
vn 0.1709 0.9703 -0.1709
vn 0.8623 0.4917 -0.1211
vn 0.8623 0.1211 -0.4917
vn 0.9835 0.1280 -0.1280
vn 0.7744 0.4474 -0.4474
vn 0.1211 -0.8623 -0.4917
vn 0.4917 -0.8623 -0.1211
vn 0.1709 -0.9703 -0.1709
vn 0.1211 -0.4917 -0.8623
vn 0.4474 -0.7744 -0.4474
vn 0.4917 -0.1211 -0.8623
vn 0.1280 -0.1280 -0.9835
vn 0.8623 -0.1211 -0.4917
vn 0.4474 -0.4474 -0.7744
vn 0.8623 -0.4917 -0.1211
vn 0.9835 -0.1280 -0.1280
vn 0.7744 -0.4474 -0.4474
vn 0.8623 0.4917 0.1211
vn 0.8623 0.1211 0.4917
vn 0.9835 0.1280 0.1280
vn 0.4474 0.7744 0.4474
vn 0.7744 0.4474 0.4474
vn 0.1211 0.8623 0.4917
vn 0.4917 0.8623 0.1211
vn 0.1709 0.9703 0.1709
vn 0.1211 0.4917 0.8623
vn 0.4917 0.1211 0.8623
vn 0.1280 0.1280 0.9835
vn 0.4474 0.4474 0.7744
vn 0.8623 -0.1211 0.4917
vn 0.8623 -0.4917 0.1211
vn 0.9835 -0.1280 0.1280
vn 0.4917 -0.1211 0.8623
vn 0.7744 -0.4474 0.4474
vn 0.1211 -0.4917 0.8623
vn 0.1280 -0.1280 0.9835
vn 0.4474 -0.7744 0.4474
vn 0.4474 -0.4474 0.7744
vn 0.4917 -0.8623 0.1211
vn 0.1211 -0.8623 0.4917
vn 0.1709 -0.9703 0.1709
vn -0.4917 0.1211 -0.8623
vn -0.1211 0.4917 -0.8623
vn -0.1280 0.1280 -0.9835
vn -0.8623 0.1211 -0.4917
vn -0.4474 0.4474 -0.7744
vn -0.8623 0.4917 -0.1211
vn -0.9835 0.1280 -0.1280
vn -0.4474 0.7744 -0.4474
vn -0.7744 0.4474 -0.4474
vn -0.1211 0.8623 -0.4917
vn -0.4917 0.8623 -0.1211
vn -0.1709 0.9703 -0.1709
vn -0.8623 -0.1211 -0.4917
vn -0.8623 -0.4917 -0.1211
vn -0.9835 -0.1280 -0.1280
vn -0.4917 -0.1211 -0.8623
vn -0.7744 -0.4474 -0.4474
vn -0.1211 -0.4917 -0.8623
vn -0.1280 -0.1280 -0.9835
vn -0.4474 -0.7744 -0.4474
vn -0.4474 -0.4474 -0.7744
vn -0.4917 -0.8623 -0.1211
vn -0.1211 -0.8623 -0.4917
vn -0.1709 -0.9703 -0.1709
vn -0.8623 0.1211 0.4917
vn -0.8623 0.4917 0.1211
vn -0.9835 0.1280 0.1280
vn -0.4917 0.1211 0.8623
vn -0.7744 0.4474 0.4474
vn -0.1211 0.4917 0.8623
vn -0.1280 0.1280 0.9835
vn -0.4474 0.7744 0.4474
vn -0.4474 0.4474 0.7744
vn -0.4917 0.8623 0.1211
vn -0.1211 0.8623 0.4917
vn -0.1709 0.9703 0.1709
vn -0.1211 -0.8623 0.4917
vn -0.4917 -0.8623 0.1211
vn -0.1709 -0.9703 0.1709
vn -0.1211 -0.4917 0.8623
vn -0.4474 -0.7744 0.4474
vn -0.4917 -0.1211 0.8623
vn -0.1280 -0.1280 0.9835
vn -0.8623 -0.1211 0.4917
vn -0.4474 -0.4474 0.7744
vn -0.8623 -0.4917 0.1211
vn -0.9835 -0.1280 0.1280
vn -0.7744 -0.4474 0.4474
vn 1.0000 0.0000 0.0000
vn 0.0000 0.0000 -1.0000
vn -1.0000 0.0000 0.0000
vn 0.0000 -0.0000 1.0000
vn 0.0000 1.0000 0.0000
s 1
f 5//1 6//2 7//3
f 5//1 8//4 9//5
f 10//6 11//7 12//8
f 13//9 8//4 10//6
f 14//10 13//9 15//11
f 6//2 16//12 14//10
f 9//5 8//4 16//12
f 17//13 18//14 19//15
f 20//16 21//17 17//13
f 22//18 20//16 23//19
f 24//20 25//21 22//18
f 26//22 24//20 27//23
f 26//22 21//17 28//24
f 21//17 25//21 28//24
f 29//25 30//26 31//27
f 29//25 32//28 33//29
f 34//30 35//31 36//32
f 37//33 32//28 34//30
f 38//34 37//33 39//35
f 30//26 40//36 38//34
f 33//29 32//28 40//36
f 41//37 42//38 43//39
f 44//40 45//41 41//37
f 46//42 44//40 47//43
f 46//42 48//44 49//45
f 50//46 51//47 52//48
f 42//38 48//44 50//46
f 45//41 49//45 48//44
f 53//49 54//50 55//51
f 56//52 57//53 53//49
f 58//54 56//52 59//55
f 58//54 60//56 61//57
f 62//58 63//59 64//60
f 54//50 60//56 62//58
f 57//53 61//57 60//56
f 65//61 66//62 67//63
f 68//64 69//65 65//61
f 70//66 68//64 71//67
f 70//66 72//68 73//69
f 74//70 75//71 76//72
f 66//62 72//68 74//70
f 69//65 73//69 72//68
f 77//73 78//74 79//75
f 80//76 81//77 77//73
f 82//78 80//76 83//79
f 82//78 84//80 85//81
f 86//82 87//83 88//84
f 78//74 84//80 86//82
f 81//77 85//81 84//80
f 89//85 90//86 91//87
f 92//88 93//89 89//85
f 94//90 92//88 95//91
f 96//92 97//93 94//90
f 98//94 96//92 99//95
f 98//94 93//89 100//96
f 93//89 97//93 100//96
f 91//87 74//70 76//72
f 90//86 66//62 74//70
f 98//94 67//63 66//62
f 76//72 17//13 19//15
f 75//71 20//16 17//13
f 70//66 23//19 20//16
f 27//23 14//10 15//11
f 24//20 6//2 14//10
f 22//18 7//3 6//2
f 83//79 94//90 95//91
f 80//76 96//92 94//90
f 77//73 99//95 96//92
f 47//43 38//34 39//35
f 44//40 30//26 38//34
f 41//37 31//27 30//26
f 71//67 53//49 55//51
f 68//64 56//52 53//49
f 65//61 59//55 56//52
f 88//84 34//30 36//32
f 87//83 37//33 34//30
f 82//78 39//35 37//33
f 36//32 10//6 12//8
f 35//31 13//9 10//6
f 29//25 15//11 13//9
f 52//48 89//85 91//87
f 51//47 92//88 89//85
f 46//42 95//91 92//88
f 64//60 86//82 88//84
f 63//59 78//74 86//82
f 58//54 79//75 78//74
f 12//8 62//58 64//60
f 11//7 54//50 62//58
f 5//1 55//51 54//50
f 19//15 50//46 52//48
f 18//14 42//38 50//46
f 26//22 43//39 42//38
f 101//97 15//11 102//97
f 103//97 43//39 104//97
f 102//97 31//27 103//97
f 104//97 27//23 101//97
f 105//98 71//67 106//98
f 107//98 23//19 105//98
f 106//98 55//51 108//98
f 108//98 7//3 107//98
f 109//99 99//95 110//99
f 110//99 79//75 111//99
f 112//99 67//63 109//99
f 111//99 59//55 112//99
f 113//100 95//91 114//100
f 115//100 39//35 116//100
f 116//100 83//79 113//100
f 114//100 47//43 115//100
f 5//1 9//5 6//2
f 5//1 11//7 8//4
f 10//6 8//4 11//7
f 13//9 16//12 8//4
f 14//10 16//12 13//9
f 6//2 9//5 16//12
f 17//13 21//17 18//14
f 20//16 25//21 21//17
f 22//18 25//21 20//16
f 24//20 28//24 25//21
f 26//22 28//24 24//20
f 26//22 18//14 21//17
f 29//25 33//29 30//26
f 29//25 35//31 32//28
f 34//30 32//28 35//31
f 37//33 40//36 32//28
f 38//34 40//36 37//33
f 30//26 33//29 40//36
f 41//37 45//41 42//38
f 44//40 49//45 45//41
f 46//42 49//45 44//40
f 46//42 51//47 48//44
f 50//46 48//44 51//47
f 42//38 45//41 48//44
f 53//49 57//53 54//50
f 56//52 61//57 57//53
f 58//54 61//57 56//52
f 58//54 63//59 60//56
f 62//58 60//56 63//59
f 54//50 57//53 60//56
f 65//61 69//65 66//62
f 68//64 73//69 69//65
f 70//66 73//69 68//64
f 70//66 75//71 72//68
f 74//70 72//68 75//71
f 66//62 69//65 72//68
f 77//73 81//77 78//74
f 80//76 85//81 81//77
f 82//78 85//81 80//76
f 82//78 87//83 84//80
f 86//82 84//80 87//83
f 78//74 81//77 84//80
f 89//85 93//89 90//86
f 92//88 97//93 93//89
f 94//90 97//93 92//88
f 96//92 100//96 97//93
f 98//94 100//96 96//92
f 98//94 90//86 93//89
f 91//87 90//86 74//70
f 90//86 98//94 66//62
f 98//94 99//95 67//63
f 76//72 75//71 17//13
f 75//71 70//66 20//16
f 70//66 71//67 23//19
f 27//23 24//20 14//10
f 24//20 22//18 6//2
f 22//18 23//19 7//3
f 83//79 80//76 94//90
f 80//76 77//73 96//92
f 77//73 79//75 99//95
f 47//43 44//40 38//34
f 44//40 41//37 30//26
f 41//37 43//39 31//27
f 71//67 68//64 53//49
f 68//64 65//61 56//52
f 65//61 67//63 59//55
f 88//84 87//83 34//30
f 87//83 82//78 37//33
f 82//78 83//79 39//35
f 36//32 35//31 10//6
f 35//31 29//25 13//9
f 29//25 31//27 15//11
f 52//48 51//47 89//85
f 51//47 46//42 92//88
f 46//42 47//43 95//91
f 64//60 63//59 86//82
f 63//59 58//54 78//74
f 58//54 59//55 79//75
f 12//8 11//7 62//58
f 11//7 5//1 54//50
f 5//1 7//3 55//51
f 19//15 18//14 50//46
f 18//14 26//22 42//38
f 26//22 27//23 43//39
f 101//97 27//23 15//11
f 103//97 31//27 43//39
f 102//97 15//11 31//27
f 104//97 43//39 27//23
f 105//98 23//19 71//67
f 107//98 7//3 23//19
f 106//98 71//67 55//51
f 108//98 55//51 7//3
f 109//99 67//63 99//95
f 110//99 99//95 79//75
f 112//99 59//55 67//63
f 111//99 79//75 59//55
f 113//100 83//79 95//91
f 115//100 47//43 39//35
f 116//100 39//35 83//79
f 114//100 95//91 47//43
f 1//97 2//97 3//97
f 1//97 4//97 2//97
f 117//98 118//98 119//98
f 117//98 120//98 118//98
f 121//99 122//99 123//99
f 121//99 124//99 122//99
f 125//101 126//101 127//101
f 125//101 128//101 126//101
o Front
v 0.870000 0.870000 1.000000
v -0.870000 -0.870000 1.000000
v 0.870000 -0.870000 1.000000
v -0.870000 0.870000 1.000000
vn 0.0000 -0.0000 1.0000
s 1
f 129//102 130//102 131//102
f 129//102 132//102 130//102
o Bottom
v 0.900000 -1.000000 -0.900000
v -0.900000 -1.000000 0.900000
v -0.900000 -1.000000 -0.900000
v 0.900000 -1.000000 0.900000
vn 0.0000 -1.0000 -0.0000
s 1
f 133//103 134//103 135//103
f 133//103 136//103 134//103
