o BackLeft
v -0.046188 0.295621 -0.418071
v -0.385154 0.295621 0.169036
v -0.385154 -0.257909 -0.222369
vn 0.8165 -0.3333 0.4714
usemtl Color
s 1
f 1//1 2//1 3//1
o BackRight
v 0.385154 0.295621 0.169036
v 0.046188 0.295621 -0.418071
v 0.385154 -0.257909 -0.222369
vn 0.8165 0.3333 -0.4714
usemtl Color
s 1
f 5//2 6//2 4//2
o Border
v 0.385154 0.257909 0.222369
v 0.385154 0.295621 0.169036
v 0.338966 0.333333 0.195702
v 0.338966 0.295621 0.249036
v 0.393050 0.269910 0.205397
v 0.374404 0.269910 0.237693
v 0.388949 0.301095 0.224560
v 0.374404 0.314069 0.175242
v 0.393050 0.283620 0.186008
v 0.388950 0.312082 0.209022
v 0.338966 0.327779 0.217233
v 0.357612 0.327779 0.184937
v 0.375493 0.323070 0.216791
v 0.357612 0.283620 0.247388
v 0.338966 0.314069 0.236622
v 0.375493 0.312082 0.232329
v -0.046188 0.295621 -0.418071
v -0.000000 0.333333 -0.391404
v 0.046188 0.295621 -0.418071
v -0.000000 0.257909 -0.444738
v -0.035438 0.314069 -0.411864
v -0.035438 0.283620 -0.433395
v -0.013457 0.312082 -0.441351
v 0.018646 0.327779 -0.402170
v -0.018646 0.327779 -0.402170
v -0.000000 0.323070 -0.433582
v 0.035438 0.283620 -0.433395
v 0.035438 0.314069 -0.411864
v 0.013457 0.312082 -0.441351
v -0.018646 0.269910 -0.443090
v 0.018646 0.269910 -0.443090
v -0.000000 0.301095 -0.449120
v 0.338966 -0.295621 -0.249036
v 0.385154 -0.257909 -0.222369
v 0.385154 -0.295621 -0.169036
v 0.338966 -0.333333 -0.195702
v 0.357612 -0.283620 -0.247388
v 0.338966 -0.314069 -0.236622
v 0.375493 -0.312082 -0.232329
v 0.393050 -0.269910 -0.205397
v 0.374404 -0.269910 -0.237693
v 0.388949 -0.301095 -0.224560
v 0.374404 -0.314069 -0.175242
v 0.393050 -0.283620 -0.186008
v 0.388950 -0.312082 -0.209022
v 0.338966 -0.327779 -0.217233
v 0.357612 -0.327779 -0.184937
v 0.375493 -0.323070 -0.216791
v -0.385154 0.295621 0.169036
v -0.385154 0.257909 0.222369
v -0.338966 0.295621 0.249036
v -0.338966 0.333333 0.195702
v -0.393050 0.283620 0.186008
v -0.374404 0.314069 0.175242
v -0.388950 0.312082 0.209022
v -0.374404 0.269910 0.237693
v -0.393050 0.269910 0.205397
v -0.388950 0.301095 0.224560
v -0.338966 0.314069 0.236622
v -0.357612 0.283620 0.247388
v -0.375493 0.312082 0.232329
v -0.357612 0.327779 0.184937
v -0.338966 0.327779 0.217233
v -0.375493 0.323070 0.216791
v -0.385154 -0.257909 -0.222369
v -0.338966 -0.295621 -0.249036
v -0.338966 -0.333333 -0.195702
v -0.385154 -0.295621 -0.169036
v -0.374404 -0.269910 -0.237693
v -0.393050 -0.269910 -0.205397
v -0.388949 -0.301095 -0.224560
v -0.338966 -0.314069 -0.236622
v -0.357612 -0.283620 -0.247388
v -0.375493 -0.312082 -0.232329
v -0.357612 -0.327779 -0.184937
v -0.338966 -0.327779 -0.217233
v -0.375493 -0.323070 -0.216791
v -0.393050 -0.283620 -0.186008
v -0.374404 -0.314069 -0.175242
v -0.388949 -0.312082 -0.209022
v -0.046188 -0.295621 0.418071
v 0.000000 -0.333333 0.391404
v 0.046188 -0.295621 0.418071
v 0.000000 -0.257909 0.444738
v -0.035438 -0.314069 0.411864
v -0.035438 -0.283620 0.433395
v -0.013457 -0.312082 0.441351
v 0.018646 -0.327779 0.402170
v -0.018646 -0.327779 0.402170
v 0.000000 -0.323070 0.433582
v 0.035438 -0.283620 0.433395
v 0.035438 -0.314069 0.411865
v 0.013457 -0.312082 0.441351
v -0.018646 -0.269910 0.443090
v 0.018646 -0.269910 0.443090
v 0.000000 -0.301095 0.449120
vn 0.1883 -0.4278 -0.8840
vn -0.1883 -0.4278 -0.8840
vn -0.0000 -0.1204 -0.9927
vn -0.1883 0.9761 0.1087
vn 0.1883 0.9761 0.1087
vn -0.0000 0.9761 -0.2174
vn -0.8597 -0.1204 0.4964
vn -0.8597 -0.4278 0.2790
vn -0.6715 -0.4278 0.6051
vn 0.9738 -0.0500 0.2220
vn 0.6791 -0.0500 0.7323
vn 0.8597 -0.1204 0.4964
vn 0.9738 0.1926 -0.1212
vn 0.8506 0.1879 0.4911
vn 0.6791 0.6738 -0.2913
vn 0.8636 0.4451 -0.2368
vn 0.4369 0.8634 0.2523
vn 0.8506 0.5256 0.0134
vn 0.0873 0.9164 0.3906
vn 0.3820 0.9164 -0.1197
vn 0.4369 0.5256 0.7299
vn 0.3820 0.1926 0.9039
vn 0.0873 0.6738 0.7338
vn 0.2267 0.4451 0.8663
vn -0.5918 0.6738 -0.4425
vn -0.5918 0.1926 -0.7827
vn -0.6369 0.4451 -0.6295
vn -0.2946 0.9164 -0.2709
vn -0.4137 0.5256 -0.7434
vn 0.2946 0.9164 -0.2709
vn 0.5918 0.6738 -0.4425
vn -0.0000 0.8634 -0.5045
vn 0.5918 0.1926 -0.7827
vn 0.6369 0.4451 -0.6295
vn 0.0000 0.1879 -0.9822
vn 0.4137 0.5256 -0.7434
vn -0.2946 -0.0500 -0.9543
vn 0.2946 -0.0500 -0.9543
vn 0.3820 -0.1926 -0.9039
vn 0.0873 -0.6738 -0.7338
vn 0.8506 -0.1879 -0.4911
vn 0.4369 -0.5256 -0.7299
vn 0.9738 0.0500 -0.2220
vn 0.6791 0.0500 -0.7323
vn 0.8636 0.0749 -0.4986
vn 0.8506 -0.5256 -0.0134
vn 0.6791 -0.6738 0.2913
vn 0.9738 -0.1926 0.1212
vn 0.8597 -0.4278 0.2790
vn 0.4369 -0.8634 -0.2523
vn 0.0873 -0.9164 -0.3906
vn 0.3820 -0.9164 0.1197
vn 0.2267 -0.9651 -0.1309
vn -0.9738 0.1926 -0.1212
vn -0.6791 0.6738 -0.2913
vn -0.8636 0.4451 -0.2368
vn -0.8506 0.1879 0.4911
vn -0.8506 0.5256 0.0134
vn -0.6791 -0.0500 0.7323
vn -0.9738 -0.0500 0.2220
vn -0.3820 0.1926 0.9039
vn -0.0873 0.6738 0.7338
vn -0.2267 0.4451 0.8663
vn -0.0873 0.9164 0.3906
vn -0.4369 0.5256 0.7299
vn -0.3820 0.9164 -0.1197
vn -0.4369 0.8634 0.2523
vn -0.6791 0.0500 -0.7323
vn -0.9738 0.0500 -0.2220
vn -0.8636 0.0749 -0.4986
vn -0.3820 -0.1926 -0.9039
vn -0.8506 -0.1879 -0.4911
vn -0.0873 -0.6738 -0.7338
vn -0.0873 -0.9164 -0.3906
vn -0.4369 -0.5256 -0.7299
vn -0.3820 -0.9164 0.1197
vn -0.2267 -0.9651 -0.1309
vn -0.6791 -0.6738 0.2913
vn -0.4369 -0.8634 -0.2523
vn -0.9738 -0.1926 0.1212
vn -0.8506 -0.5256 -0.0134
vn -0.5918 -0.6738 0.4425
vn -0.5918 -0.1926 0.7827
vn -0.2946 -0.9164 0.2709
vn -0.4137 -0.5256 0.7434
vn 0.2946 -0.9164 0.2709
vn 0.0000 -0.9651 0.2618
vn 0.4137 -0.5256 0.7434
vn 0.0000 -0.8634 0.5045
vn 0.5918 -0.1926 0.7827
vn 0.5918 -0.6738 0.4425
vn 0.6715 -0.4278 0.6051
vn 0.0000 -0.1879 0.9822
vn -0.2946 0.0500 0.9543
vn 0.2946 0.0500 0.9543
vn -0.0000 0.0749 0.9972
usemtl Border
s 1
f 39//3 72//4 26//5
f 58//6 9//7 24//8
f 56//9 74//10 87//11
f 11//12 12//13 7//14
f 15//15 13//16 11//12
f 14//17 15//15 8//18
f 14//17 19//19 16//20
f 17//21 18//22 9//7
f 17//21 22//23 19//19
f 20//24 21//25 10//26
f 20//24 13//16 22//23
f 16//20 22//23 13//16
f 27//27 28//28 23//29
f 31//30 29//31 27//27
f 30//32 31//30 24//8
f 34//33 32//34 30//32
f 33//35 34//33 25//36
f 33//35 38//37 35//38
f 36//39 37//40 26//5
f 28//28 38//37 36//39
f 32//34 38//37 29//31
f 43//41 44//42 39//3
f 43//41 48//43 45//44
f 46//45 47//46 40//47
f 46//45 51//48 48//43
f 49//49 50//50 41//51
f 49//49 54//52 51//48
f 52//53 53//54 42//55
f 44//42 54//52 52//53
f 48//43 54//52 45//44
f 59//56 60//57 55//58
f 59//56 64//59 61//60
f 62//61 63//62 56//9
f 66//63 64//59 62//61
f 65//64 66//63 57//65
f 69//66 67//67 65//64
f 68//68 69//66 58//6
f 60//57 70//69 68//68
f 61//60 67//67 70//69
f 75//70 76//71 71//72
f 79//73 77//74 75//70
f 78//75 79//73 72//4
f 82//76 80//77 78//75
f 81//78 82//76 73//79
f 85//80 83//81 81//78
f 84//82 85//80 74//10
f 84//82 77//74 86//83
f 77//74 83//81 86//83
f 91//84 92//85 87//11
f 95//86 93//87 91//84
f 94//88 95//86 88//89
f 94//88 99//90 96//91
f 97//92 98//93 89//94
f 97//92 102//95 99//90
f 100//96 101//97 90//98
f 92//85 102//95 100//96
f 93//87 99//90 102//95
f 71//72 59//56 55//58
f 76//71 63//62 59//56
f 84//82 56//9 63//62
f 90//98 66//63 100//96
f 66//63 92//85 100//96
f 62//61 87//11 92//85
f 10//26 101//97 20//24
f 20//24 97//92 12//13
f 97//92 7//14 12//13
f 55//58 27//27 23//29
f 60//57 31//30 27//27
f 68//68 24//8 31//30
f 39//3 78//75 72//4
f 44//42 82//76 78//75
f 52//53 73//79 82//76
f 10//26 65//64 57//65
f 21//25 69//66 65//64
f 17//21 58//6 69//66
f 74//10 91//84 87//11
f 85//80 95//86 91//84
f 81//78 88//89 95//86
f 89//94 49//49 41//51
f 98//93 53//54 49//49
f 53//54 88//89 42//55
f 9//7 30//32 24//8
f 18//22 34//33 30//32
f 34//33 8//18 25//36
f 41//51 11//12 7//14
f 50//50 15//15 11//12
f 15//15 40//47 8//18
f 26//5 43//41 39//3
f 43//41 33//35 47//46
f 47//46 25//36 40//47
f 23//29 75//70 71//72
f 28//28 79//73 75//70
f 79//73 26//5 72//4
f 89//94 41//51 7//14
f 11//12 13//16 12//13
f 15//15 16//20 13//16
f 14//17 16//20 15//15
f 14//17 18//22 19//19
f 17//21 19//19 18//22
f 17//21 21//25 22//23
f 20//24 22//23 21//25
f 20//24 12//13 13//16
f 16//20 19//19 22//23
f 27//27 29//31 28//28
f 31//30 32//34 29//31
f 30//32 32//34 31//30
f 34//33 35//38 32//34
f 33//35 35//38 34//33
f 33//35 37//40 38//37
f 36//39 38//37 37//40
f 28//28 29//31 38//37
f 32//34 35//38 38//37
f 43//41 45//44 44//42
f 43//41 47//46 48//43
f 46//45 48//43 47//46
f 46//45 50//50 51//48
f 49//49 51//48 50//50
f 49//49 53//54 54//52
f 52//53 54//52 53//54
f 44//42 45//44 54//52
f 48//43 51//48 54//52
f 59//56 61//60 60//57
f 59//56 63//62 64//59
f 62//61 64//59 63//62
f 66//63 67//67 64//59
f 65//64 67//67 66//63
f 69//66 70//69 67//67
f 68//68 70//69 69//66
f 60//57 61//60 70//69
f 61//60 64//59 67//67
f 75//70 77//74 76//71
f 79//73 80//77 77//74
f 78//75 80//77 79//73
f 82//76 83//81 80//77
f 81//78 83//81 82//76
f 85//80 86//83 83//81
f 84//82 86//83 85//80
f 84//82 76//71 77//74
f 77//74 80//77 83//81
f 91//84 93//87 92//85
f 95//86 96//91 93//87
f 94//88 96//91 95//86
f 94//88 98//93 99//90
f 97//92 99//90 98//93
f 97//92 101//97 102//95
f 100//96 102//95 101//97
f 92//85 93//87 102//95
f 93//87 96//91 99//90
f 71//72 76//71 59//56
f 76//71 84//82 63//62
f 84//82 74//10 56//9
f 90//98 57//65 66//63
f 66//63 62//61 92//85
f 62//61 56//9 87//11
f 10//26 90//98 101//97
f 20//24 101//97 97//92
f 97//92 89//94 7//14
f 55//58 60//57 27//27
f 60//57 68//68 31//30
f 68//68 58//6 24//8
f 39//3 44//42 78//75
f 44//42 52//53 82//76
f 52//53 42//55 73//79
f 10//26 21//25 65//64
f 21//25 17//21 69//66
f 17//21 9//7 58//6
f 74//10 85//80 91//84
f 85//80 81//78 95//86
f 81//78 73//79 88//89
f 89//94 98//93 49//49
f 98//93 94//88 53//54
f 53//54 94//88 88//89
f 9//7 18//22 30//32
f 18//22 14//17 34//33
f 34//33 14//17 8//18
f 41//51 50//50 11//12
f 50//50 46//45 15//15
f 15//15 46//45 40//47
f 26//5 37//40 43//41
f 43//41 37//40 33//35
f 47//46 33//35 25//36
f 23//29 28//28 75//70
f 28//28 36//39 79//73
f 79//73 36//39 26//5
o Front
v 0.338966 0.295621 0.249036
v -0.338966 0.295621 0.249036
v 0.000000 -0.257909 0.444738
vn 0.0000 0.3333 0.9428
usemtl Color
s 1
f 104//99 103//99 105//99
o Bottom
v 0.338966 -0.333333 -0.195702
v -0.338966 -0.333333 -0.195702
v 0.000000 -0.333333 0.391404
vn 0.0000 -1.0000 0.0000
usemtl Border
s 1
f 106//100 108//100 107//100
