# Blender v3.2.2 OBJ File
# www.blender.org
o Front
v 0.037033 0.379051 -0.021381
v 0.334182 -0.106192 0.150178
v 0.037033 -0.106192 -0.364500
vn 0.8165 0.3333 -0.4714
s 1
f 2//1 3//1 1//1
o Border
v -0.297149 -0.166667 0.171559
v 0.297149 -0.166667 0.171559
v -0.000000 -0.166667 -0.343119
v -0.037033 0.379051 -0.021381
v -0.334182 -0.106192 0.150178
v -0.037033 -0.106192 -0.364500
v -0.037033 0.379051 -0.021381
v -0.000000 0.372240 0.045170
v 0.037033 0.379051 -0.021381
v -0.032491 0.405004 0.005715
v -0.011296 0.405004 -0.030996
v -0.007021 0.438273 -0.004054
v 0.021195 0.405004 0.025281
v -0.021195 0.405004 0.025281
v -0.000000 0.438273 0.008108
v 0.011296 0.405004 -0.030996
v 0.032491 0.405004 0.005715
v 0.007021 0.438273 -0.004054
v -0.334182 -0.106192 0.150178
v -0.297149 -0.166667 0.171559
v -0.290894 -0.102787 0.213117
v -0.345280 -0.140389 0.161830
v -0.345280 -0.105778 0.186304
v -0.362529 -0.142269 0.201199
v -0.312789 -0.158836 0.205062
v -0.333984 -0.158836 0.168352
v -0.355508 -0.153735 0.205252
v -0.333984 -0.105778 0.205870
v -0.312789 -0.140389 0.218107
v -0.355508 -0.142269 0.213360
v 0.334182 -0.106192 0.150178
v 0.290894 -0.102787 0.213117
v 0.297149 -0.166667 0.171559
v 0.345280 -0.105778 0.186304
v 0.345280 -0.140389 0.161830
v 0.362529 -0.142269 0.201199
v 0.312789 -0.140389 0.218106
v 0.333984 -0.105778 0.205870
v 0.355508 -0.142269 0.213360
v 0.333984 -0.158836 0.168352
v 0.312789 -0.158836 0.205062
v 0.355508 -0.153735 0.205252
v -0.037033 -0.106192 -0.364500
v 0.037033 -0.106192 -0.364500
v -0.000000 -0.166667 -0.343119
v -0.011297 -0.105778 -0.392173
v -0.032491 -0.140389 -0.379936
v -0.007021 -0.142269 -0.414559
v 0.032491 -0.140389 -0.379936
v 0.011296 -0.105778 -0.392173
v 0.007021 -0.142269 -0.414559
v -0.021195 -0.158836 -0.373414
v 0.021195 -0.158836 -0.373414
v -0.000000 -0.153735 -0.410505
v -0.000000 0.372240 0.045170
v -0.290894 -0.102787 0.213117
v 0.290894 -0.102787 0.213117
vn -0.8078 0.5895 0.0055
vn -0.3991 0.5895 -0.7023
vn -0.7649 0.4688 -0.4416
vn -0.4035 0.5844 0.7040
vn -0.4516 0.8533 -0.2607
vn 0.4035 0.5844 0.7040
vn -0.0000 0.4482 0.8939
vn 0.4516 0.8533 -0.2607
vn -0.0000 0.8533 0.5214
vn 0.3991 0.5895 -0.7023
vn 0.8078 0.5895 0.0055
vn 0.7649 0.4688 -0.4416
vn -0.8836 -0.2017 -0.4226
vn -0.8836 0.4656 0.0493
vn -0.8928 0.2601 -0.3678
vn -0.4845 -0.8534 -0.1921
vn -0.9978 -0.0386 0.0546
vn -0.0759 -0.8534 0.5156
vn -0.1278 -0.9890 0.0738
vn -0.5462 -0.0386 0.8368
vn -0.5462 -0.7761 0.3153
vn -0.4757 0.4666 0.7457
vn -0.0721 -0.1924 0.9787
vn -0.1079 0.2720 0.9562
vn 0.8836 0.4656 0.0493
vn 0.8836 -0.2017 -0.4226
vn 0.8928 0.2601 -0.3678
vn 0.4757 0.4666 0.7457
vn 0.9978 -0.0386 0.0546
vn 0.0721 -0.1924 0.9787
vn 0.1079 0.2720 0.9562
vn 0.0759 -0.8534 0.5156
vn 0.5462 -0.0386 0.8368
vn 0.4845 -0.8534 -0.1921
vn 0.1278 -0.9890 0.0738
vn 0.5462 -0.7761 0.3153
vn -0.3991 0.4656 -0.7899
vn -0.8078 -0.2017 -0.5539
vn -0.7649 0.2601 -0.5892
vn 0.3991 0.4656 -0.7899
vn -0.4516 -0.0386 -0.8914
vn 0.8078 -0.2017 -0.5539
vn 0.7649 0.2601 -0.5892
vn 0.4086 -0.8534 -0.3235
vn 0.4516 -0.0386 -0.8914
vn -0.4086 -0.8534 -0.3235
vn -0.0000 -0.9890 -0.1476
vn -0.0000 -0.7761 -0.6307
vn 0.0000 -1.0000 -0.0000
vn -0.8165 0.3333 -0.4714
vn 0.0000 0.3333 0.9428
s 1
f 13//2 14//3 10//4
f 17//5 15//6 13//2
f 16//7 17//5 11//8
f 16//7 21//9 18//10
f 19//11 20//12 12//13
f 19//11 15//6 21//9
f 15//6 18//10 21//9
f 25//14 26//15 22//16
f 29//17 27//18 25//14
f 28//19 29//17 23//20
f 28//19 33//21 30//22
f 31//23 32//24 24//25
f 31//23 27//18 33//21
f 27//18 30//22 33//21
f 37//26 38//27 34//28
f 41//29 39//30 37//26
f 40//31 41//29 35//32
f 44//33 42//34 40//31
f 43//35 44//33 36//36
f 38//27 45//37 43//35
f 39//30 42//34 45//37
f 49//38 50//39 46//40
f 53//41 51//42 49//38
f 52//43 53//41 47//44
f 56//45 54//46 52//43
f 55//47 56//45 48//48
f 55//47 51//42 57//49
f 51//42 54//46 57//49
f 22//16 13//2 10//4
f 26//15 17//5 13//2
f 31//23 11//8 17//5
f 11//8 41//29 16//7
f 41//29 20//12 16//7
f 20//12 34//28 12//13
f 47//44 19//11 12//13
f 19//11 49//38 14//3
f 49//38 10//4 14//3
f 36//36 28//19 23//20
f 44//33 32//24 28//19
f 40//31 24//25 32//24
f 48//48 43//35 36//36
f 43//35 52//43 38//27
f 52//43 34//28 38//27
f 46//40 25//14 22//16
f 25//14 55//47 29//17
f 55//47 23//20 29//17
f 13//2 15//6 14//3
f 17//5 18//10 15//6
f 16//7 18//10 17//5
f 16//7 20//12 21//9
f 19//11 21//9 20//12
f 19//11 14//3 15//6
f 25//14 27//18 26//15
f 29//17 30//22 27//18
f 28//19 30//22 29//17
f 28//19 32//24 33//21
f 31//23 33//21 32//24
f 31//23 26//15 27//18
f 37//26 39//30 38//27
f 41//29 42//34 39//30
f 40//31 42//34 41//29
f 44//33 45//37 42//34
f 43//35 45//37 44//33
f 38//27 39//30 45//37
f 49//38 51//42 50//39
f 53//41 54//46 51//42
f 52//43 54//46 53//41
f 56//45 57//49 54//46
f 55//47 57//49 56//45
f 55//47 50//39 51//42
f 22//16 26//15 13//2
f 26//15 31//23 17//5
f 31//23 24//25 11//8
f 11//8 35//32 41//29
f 41//29 37//26 20//12
f 20//12 37//26 34//28
f 47//44 53//41 19//11
f 19//11 53//41 49//38
f 49//38 46//40 10//4
f 36//36 44//33 28//19
f 44//33 40//31 32//24
f 40//31 35//32 24//25
f 48//48 56//45 43//35
f 43//35 56//45 52//43
f 52//43 47//44 34//28
f 46//40 50//39 25//14
f 25//14 50//39 55//47
f 55//47 48//48 23//20
f 5//50 4//50 6//50
f 8//51 7//51 9//51
f 59//52 60//52 58//52
