# Blender v3.2.2 OBJ File
# www.blender.org
o BackRight
v 0.385154 0.295621 0.169036
v 0.046188 0.295621 -0.418071
v 0.385154 -0.257909 -0.222369
vn 0.8165 0.3333 -0.4714
s 1
f 2//1 1//1 3//1
o Border
v 0.385154 0.257909 0.222369
v 0.385154 0.295621 0.169036
v 0.338966 0.333333 0.195702
v 0.338966 0.295621 0.249036
v 0.393050 0.269910 0.205397
v 0.374404 0.269910 0.237693
v 0.388949 0.301095 0.224560
v 0.374404 0.314069 0.175242
v 0.393050 0.283620 0.186008
v 0.388950 0.312082 0.209022
v 0.338966 0.327779 0.217233
v 0.357612 0.327779 0.184937
v 0.375493 0.323070 0.216791
v 0.357612 0.283620 0.247388
v 0.338966 0.314069 0.236622
v 0.375493 0.312082 0.232329
v -0.046188 0.295621 -0.418071
v -0.000000 0.333333 -0.391404
v 0.046188 0.295621 -0.418071
v -0.000000 0.257909 -0.444738
v -0.035438 0.314069 -0.411864
v -0.035438 0.283620 -0.433395
v -0.013457 0.312082 -0.441351
v 0.018646 0.327779 -0.402170
v -0.018646 0.327779 -0.402170
v -0.000000 0.323070 -0.433582
v 0.035438 0.283620 -0.433395
v 0.035438 0.314069 -0.411864
v 0.013457 0.312082 -0.441351
v -0.018646 0.269910 -0.443090
v 0.018646 0.269910 -0.443090
v -0.000000 0.301095 -0.449120
v 0.338966 -0.295621 -0.249036
v 0.385154 -0.257909 -0.222369
v 0.385154 -0.295621 -0.169036
v 0.338966 -0.333333 -0.195702
v 0.357612 -0.283620 -0.247388
v 0.338966 -0.314069 -0.236622
v 0.375493 -0.312082 -0.232329
v 0.393050 -0.269910 -0.205397
v 0.374404 -0.269910 -0.237693
v 0.388949 -0.301095 -0.224560
v 0.374404 -0.314069 -0.175242
v 0.393050 -0.283620 -0.186008
v 0.388950 -0.312082 -0.209022
v 0.338966 -0.327779 -0.217233
v 0.357612 -0.327779 -0.184937
v 0.375493 -0.323070 -0.216791
v -0.385154 0.295621 0.169036
v -0.385154 0.257909 0.222369
v -0.338966 0.295621 0.249036
v -0.338966 0.333333 0.195702
v -0.393050 0.283620 0.186008
v -0.374404 0.314069 0.175242
v -0.388950 0.312082 0.209022
v -0.374404 0.269910 0.237693
v -0.393050 0.269910 0.205397
v -0.388950 0.301095 0.224560
v -0.338966 0.314069 0.236622
v -0.357612 0.283620 0.247388
v -0.375493 0.312082 0.232329
v -0.357612 0.327779 0.184937
v -0.338966 0.327779 0.217233
v -0.375493 0.323070 0.216791
v -0.385154 -0.257909 -0.222369
v -0.338966 -0.295621 -0.249036
v -0.338966 -0.333333 -0.195702
v -0.385154 -0.295621 -0.169036
v -0.374404 -0.269910 -0.237693
v -0.393050 -0.269910 -0.205397
v -0.388949 -0.301095 -0.224560
v -0.338966 -0.314069 -0.236622
v -0.357612 -0.283620 -0.247388
v -0.375493 -0.312082 -0.232329
v -0.357612 -0.327779 -0.184937
v -0.338966 -0.327779 -0.217233
v -0.375493 -0.323070 -0.216791
v -0.393050 -0.283620 -0.186008
v -0.374404 -0.314069 -0.175242
v -0.388949 -0.312082 -0.209022
v -0.046188 -0.295621 0.418071
v 0.000000 -0.333333 0.391404
v 0.046188 -0.295621 0.418071
v 0.000000 -0.257909 0.444738
v -0.035438 -0.314069 0.411864
v -0.035438 -0.283620 0.433395
v -0.013457 -0.312082 0.441351
v 0.018646 -0.327779 0.402170
v -0.018646 -0.327779 0.402170
v 0.000000 -0.323070 0.433582
v 0.035438 -0.283620 0.433395
v 0.035438 -0.314069 0.411865
v 0.013457 -0.312082 0.441351
v -0.018646 -0.269910 0.443090
v 0.018646 -0.269910 0.443090
v 0.000000 -0.301095 0.449120
v -0.046188 0.295621 -0.418071
v -0.385154 0.295621 0.169036
v -0.385154 -0.257909 -0.222369
vn 0.8165 -0.3333 0.4714
vn 0.1883 -0.4278 -0.8840
vn -0.1883 -0.4278 -0.8840
vn -0.0000 -0.1204 -0.9927
vn -0.1883 0.9761 0.1087
vn 0.1883 0.9761 0.1087
vn -0.0000 0.9761 -0.2174
vn -0.8597 -0.1204 0.4964
vn -0.8597 -0.4278 0.2790
vn -0.6715 -0.4278 0.6051
vn 0.9738 -0.0500 0.2220
vn 0.6791 -0.0500 0.7323
vn 0.8597 -0.1204 0.4964
vn 0.9738 0.1926 -0.1212
vn 0.8506 0.1879 0.4911
vn 0.6791 0.6738 -0.2913
vn 0.8636 0.4451 -0.2368
vn 0.4369 0.8634 0.2523
vn 0.8506 0.5256 0.0134
vn 0.0873 0.9164 0.3906
vn 0.3820 0.9164 -0.1197
vn 0.4369 0.5256 0.7299
vn 0.3820 0.1926 0.9039
vn 0.0873 0.6738 0.7338
vn 0.2267 0.4451 0.8663
vn -0.5918 0.6738 -0.4425
vn -0.5918 0.1926 -0.7827
vn -0.6369 0.4451 -0.6295
vn -0.2946 0.9164 -0.2709
vn -0.4137 0.5256 -0.7434
vn 0.2946 0.9164 -0.2709
vn 0.5918 0.6738 -0.4425
vn -0.0000 0.8634 -0.5045
vn 0.5918 0.1926 -0.7827
vn 0.6369 0.4451 -0.6295
vn 0.0000 0.1879 -0.9822
vn 0.4137 0.5256 -0.7434
vn -0.2946 -0.0500 -0.9543
vn 0.2946 -0.0500 -0.9543
vn 0.3820 -0.1926 -0.9039
vn 0.0873 -0.6738 -0.7338
vn 0.8506 -0.1879 -0.4911
vn 0.4369 -0.5256 -0.7299
vn 0.9738 0.0500 -0.2220
vn 0.6791 0.0500 -0.7323
vn 0.8636 0.0749 -0.4986
vn 0.8506 -0.5256 -0.0134
vn 0.6791 -0.6738 0.2913
vn 0.9738 -0.1926 0.1212
vn 0.8597 -0.4278 0.2790
vn 0.4369 -0.8634 -0.2523
vn 0.0873 -0.9164 -0.3906
vn 0.3820 -0.9164 0.1197
vn 0.2267 -0.9651 -0.1309
vn -0.9738 0.1926 -0.1212
vn -0.6791 0.6738 -0.2913
vn -0.8636 0.4451 -0.2368
vn -0.8506 0.1879 0.4911
vn -0.8506 0.5256 0.0134
vn -0.6791 -0.0500 0.7323
vn -0.9738 -0.0500 0.2220
vn -0.3820 0.1926 0.9039
vn -0.0873 0.6738 0.7338
vn -0.2267 0.4451 0.8663
vn -0.0873 0.9164 0.3906
vn -0.4369 0.5256 0.7299
vn -0.3820 0.9164 -0.1197
vn -0.4369 0.8634 0.2523
vn -0.6791 0.0500 -0.7323
vn -0.9738 0.0500 -0.2220
vn -0.8636 0.0749 -0.4986
vn -0.3820 -0.1926 -0.9039
vn -0.8506 -0.1879 -0.4911
vn -0.0873 -0.6738 -0.7338
vn -0.0873 -0.9164 -0.3906
vn -0.4369 -0.5256 -0.7299
vn -0.3820 -0.9164 0.1197
vn -0.2267 -0.9651 -0.1309
vn -0.6791 -0.6738 0.2913
vn -0.4369 -0.8634 -0.2523
vn -0.9738 -0.1926 0.1212
vn -0.8506 -0.5256 -0.0134
vn -0.5918 -0.6738 0.4425
vn -0.5918 -0.1926 0.7827
vn -0.2946 -0.9164 0.2709
vn -0.4137 -0.5256 0.7434
vn 0.2946 -0.9164 0.2709
vn 0.0000 -0.9651 0.2618
vn 0.4137 -0.5256 0.7434
vn 0.0000 -0.8634 0.5045
vn 0.5918 -0.1926 0.7827
vn 0.5918 -0.6738 0.4425
vn 0.6715 -0.4278 0.6051
vn 0.0000 -0.1879 0.9822
vn -0.2946 0.0500 0.9543
vn 0.2946 0.0500 0.9543
vn -0.0000 0.0749 0.9972
s 1
f 100//2 101//2 102//2
f 36//3 69//4 23//5
f 55//6 6//7 21//8
f 53//9 71//10 84//11
f 8//12 9//13 4//14
f 12//15 10//16 8//12
f 11//17 12//15 5//18
f 11//17 16//19 13//20
f 14//21 15//22 6//7
f 14//21 19//23 16//19
f 17//24 18//25 7//26
f 17//24 10//16 19//23
f 13//20 19//23 10//16
f 24//27 25//28 20//29
f 28//30 26//31 24//27
f 27//32 28//30 21//8
f 31//33 29//34 27//32
f 30//35 31//33 22//36
f 30//35 35//37 32//38
f 33//39 34//40 23//5
f 25//28 35//37 33//39
f 29//34 35//37 26//31
f 40//41 41//42 36//3
f 40//41 45//43 42//44
f 43//45 44//46 37//47
f 43//45 48//48 45//43
f 46//49 47//50 38//51
f 46//49 51//52 48//48
f 49//53 50//54 39//55
f 41//42 51//52 49//53
f 45//43 51//52 42//44
f 56//56 57//57 52//58
f 56//56 61//59 58//60
f 59//61 60//62 53//9
f 63//63 61//59 59//61
f 62//64 63//63 54//65
f 66//66 64//67 62//64
f 65//68 66//66 55//6
f 57//57 67//69 65//68
f 58//60 64//67 67//69
f 72//70 73//71 68//72
f 76//73 74//74 72//70
f 75//75 76//73 69//4
f 79//76 77//77 75//75
f 78//78 79//76 70//79
f 82//80 80//81 78//78
f 81//82 82//80 71//10
f 81//82 74//74 83//83
f 74//74 80//81 83//83
f 88//84 89//85 84//11
f 92//86 90//87 88//84
f 91//88 92//86 85//89
f 91//88 96//90 93//91
f 94//92 95//93 86//94
f 94//92 99//95 96//90
f 97//96 98//97 87//98
f 89//85 99//95 97//96
f 90//87 96//90 99//95
f 68//72 56//56 52//58
f 73//71 60//62 56//56
f 81//82 53//9 60//62
f 87//98 63//63 97//96
f 63//63 89//85 97//96
f 59//61 84//11 89//85
f 7//26 98//97 17//24
f 17//24 94//92 9//13
f 94//92 4//14 9//13
f 52//58 24//27 20//29
f 57//57 28//30 24//27
f 65//68 21//8 28//30
f 36//3 75//75 69//4
f 41//42 79//76 75//75
f 49//53 70//79 79//76
f 7//26 62//64 54//65
f 18//25 66//66 62//64
f 14//21 55//6 66//66
f 71//10 88//84 84//11
f 82//80 92//86 88//84
f 78//78 85//89 92//86
f 86//94 46//49 38//51
f 95//93 50//54 46//49
f 50//54 85//89 39//55
f 6//7 27//32 21//8
f 15//22 31//33 27//32
f 31//33 5//18 22//36
f 38//51 8//12 4//14
f 47//50 12//15 8//12
f 12//15 37//47 5//18
f 23//5 40//41 36//3
f 40//41 30//35 44//46
f 44//46 22//36 37//47
f 20//29 72//70 68//72
f 25//28 76//73 72//70
f 76//73 23//5 69//4
f 86//94 38//51 4//14
f 8//12 10//16 9//13
f 12//15 13//20 10//16
f 11//17 13//20 12//15
f 11//17 15//22 16//19
f 14//21 16//19 15//22
f 14//21 18//25 19//23
f 17//24 19//23 18//25
f 17//24 9//13 10//16
f 13//20 16//19 19//23
f 24//27 26//31 25//28
f 28//30 29//34 26//31
f 27//32 29//34 28//30
f 31//33 32//38 29//34
f 30//35 32//38 31//33
f 30//35 34//40 35//37
f 33//39 35//37 34//40
f 25//28 26//31 35//37
f 29//34 32//38 35//37
f 40//41 42//44 41//42
f 40//41 44//46 45//43
f 43//45 45//43 44//46
f 43//45 47//50 48//48
f 46//49 48//48 47//50
f 46//49 50//54 51//52
f 49//53 51//52 50//54
f 41//42 42//44 51//52
f 45//43 48//48 51//52
f 56//56 58//60 57//57
f 56//56 60//62 61//59
f 59//61 61//59 60//62
f 63//63 64//67 61//59
f 62//64 64//67 63//63
f 66//66 67//69 64//67
f 65//68 67//69 66//66
f 57//57 58//60 67//69
f 58//60 61//59 64//67
f 72//70 74//74 73//71
f 76//73 77//77 74//74
f 75//75 77//77 76//73
f 79//76 80//81 77//77
f 78//78 80//81 79//76
f 82//80 83//83 80//81
f 81//82 83//83 82//80
f 81//82 73//71 74//74
f 74//74 77//77 80//81
f 88//84 90//87 89//85
f 92//86 93//91 90//87
f 91//88 93//91 92//86
f 91//88 95//93 96//90
f 94//92 96//90 95//93
f 94//92 98//97 99//95
f 97//96 99//95 98//97
f 89//85 90//87 99//95
f 90//87 93//91 96//90
f 68//72 73//71 56//56
f 73//71 81//82 60//62
f 81//82 71//10 53//9
f 87//98 54//65 63//63
f 63//63 59//61 89//85
f 59//61 53//9 84//11
f 7//26 87//98 98//97
f 17//24 98//97 94//92
f 94//92 86//94 4//14
f 52//58 57//57 24//27
f 57//57 65//68 28//30
f 65//68 55//6 21//8
f 36//3 41//42 75//75
f 41//42 49//53 79//76
f 49//53 39//55 70//79
f 7//26 18//25 62//64
f 18//25 14//21 66//66
f 14//21 6//7 55//6
f 71//10 82//80 88//84
f 82//80 78//78 92//86
f 78//78 70//79 85//89
f 86//94 95//93 46//49
f 95//93 91//88 50//54
f 50//54 91//88 85//89
f 6//7 15//22 27//32
f 15//22 11//17 31//33
f 31//33 11//17 5//18
f 38//51 47//50 8//12
f 47//50 43//45 12//15
f 12//15 43//45 37//47
f 23//5 34//40 40//41
f 40//41 34//40 30//35
f 44//46 30//35 22//36
f 20//29 25//28 72//70
f 25//28 33//39 76//73
f 76//73 33//39 23//5
o Front
v 0.338966 0.295621 0.249036
v -0.338966 0.295621 0.249036
v 0.000000 -0.257909 0.444738
vn 0.0000 0.3333 0.9428
s 1
f 104//99 105//99 103//99
o Bottom
v 0.338966 -0.333333 -0.195702
v -0.338966 -0.333333 -0.195702
v 0.000000 -0.333333 0.391404
vn 0.0000 -1.0000 0.0000
s 1
f 106//100 108//100 107//100
