# Blender v3.2.2 OBJ File
# www.blender.org
o Front
v -0.000000 0.372240 0.045170
v -0.290894 -0.102787 0.213117
v 0.290894 -0.102787 0.213117
vn 0.0000 0.3333 0.9428
s 1
f 2//1 3//1 1//1
o BackRight
v 0.037033 0.379051 -0.021381
v 0.334182 -0.106192 0.150178
v 0.037033 -0.106192 -0.364500
vn 0.8165 0.3333 -0.4714
s 1
f 5//2 6//2 4//2
o Border
v -0.037033 0.379051 -0.021381
v -0.000000 0.372240 0.045170
v 0.037033 0.379051 -0.021381
v -0.032491 0.405004 0.005715
v -0.011296 0.405004 -0.030996
v -0.007021 0.438273 -0.004054
v 0.021195 0.405004 0.025281
v -0.021195 0.405004 0.025281
v -0.000000 0.438273 0.008108
v 0.011296 0.405004 -0.030996
v 0.032491 0.405004 0.005715
v 0.007021 0.438273 -0.004054
v -0.334182 -0.106192 0.150178
v -0.297149 -0.166667 0.171559
v -0.290894 -0.102787 0.213117
v -0.345280 -0.140389 0.161830
v -0.345280 -0.105778 0.186304
v -0.362529 -0.142269 0.201199
v -0.312789 -0.158836 0.205062
v -0.333984 -0.158836 0.168352
v -0.355508 -0.153735 0.205252
v -0.333984 -0.105778 0.205870
v -0.312789 -0.140389 0.218107
v -0.355508 -0.142269 0.213360
v 0.334182 -0.106192 0.150178
v 0.290894 -0.102787 0.213117
v 0.297149 -0.166667 0.171559
v 0.345280 -0.105778 0.186304
v 0.345280 -0.140389 0.161830
v 0.362529 -0.142269 0.201199
v 0.312789 -0.140389 0.218106
v 0.333984 -0.105778 0.205870
v 0.355508 -0.142269 0.213360
v 0.333984 -0.158836 0.168352
v 0.312789 -0.158836 0.205062
v 0.355508 -0.153735 0.205252
v -0.037033 -0.106192 -0.364500
v 0.037033 -0.106192 -0.364500
v -0.000000 -0.166667 -0.343119
v -0.011297 -0.105778 -0.392173
v -0.032491 -0.140389 -0.379936
v -0.007021 -0.142269 -0.414559
v 0.032491 -0.140389 -0.379936
v 0.011296 -0.105778 -0.392173
v 0.007021 -0.142269 -0.414559
v -0.021195 -0.158836 -0.373414
v 0.021195 -0.158836 -0.373414
v -0.000000 -0.153735 -0.410505
v -0.037033 0.379051 -0.021381
v -0.334182 -0.106192 0.150178
v -0.037033 -0.106192 -0.364500
vn -0.8078 0.5895 0.0055
vn -0.3991 0.5895 -0.7023
vn -0.7649 0.4688 -0.4416
vn -0.4035 0.5844 0.7040
vn -0.4516 0.8533 -0.2607
vn 0.4035 0.5844 0.7040
vn -0.0000 0.4482 0.8939
vn 0.4516 0.8533 -0.2607
vn -0.0000 0.8533 0.5214
vn 0.3991 0.5895 -0.7023
vn 0.8078 0.5895 0.0055
vn 0.7649 0.4688 -0.4416
vn -0.8836 -0.2017 -0.4226
vn -0.8836 0.4656 0.0493
vn -0.8928 0.2601 -0.3678
vn -0.4845 -0.8534 -0.1921
vn -0.9978 -0.0386 0.0546
vn -0.0759 -0.8534 0.5156
vn -0.1278 -0.9890 0.0738
vn -0.5462 -0.0386 0.8368
vn -0.5462 -0.7761 0.3153
vn -0.4757 0.4666 0.7457
vn -0.0721 -0.1924 0.9787
vn -0.1079 0.2720 0.9562
vn 0.8836 0.4656 0.0493
vn 0.8836 -0.2017 -0.4226
vn 0.8928 0.2601 -0.3678
vn 0.4757 0.4666 0.7457
vn 0.9978 -0.0386 0.0546
vn 0.0721 -0.1924 0.9787
vn 0.1079 0.2720 0.9562
vn 0.0759 -0.8534 0.5156
vn 0.5462 -0.0386 0.8368
vn 0.4845 -0.8534 -0.1921
vn 0.1278 -0.9890 0.0738
vn 0.5462 -0.7761 0.3153
vn -0.3991 0.4656 -0.7899
vn -0.8078 -0.2017 -0.5539
vn -0.7649 0.2601 -0.5892
vn 0.3991 0.4656 -0.7899
vn -0.4516 -0.0386 -0.8914
vn 0.8078 -0.2017 -0.5539
vn 0.7649 0.2601 -0.5892
vn 0.4086 -0.8534 -0.3235
vn 0.4516 -0.0386 -0.8914
vn -0.4086 -0.8534 -0.3235
vn -0.0000 -0.9890 -0.1476
vn -0.0000 -0.7761 -0.6307
vn -0.8165 0.3333 -0.4714
s 1
f 10//3 11//4 7//5
f 14//6 12//7 10//3
f 13//8 14//6 8//9
f 13//8 18//10 15//11
f 16//12 17//13 9//14
f 16//12 12//7 18//10
f 12//7 15//11 18//10
f 22//15 23//16 19//17
f 26//18 24//19 22//15
f 25//20 26//18 20//21
f 25//20 30//22 27//23
f 28//24 29//25 21//26
f 28//24 24//19 30//22
f 24//19 27//23 30//22
f 34//27 35//28 31//29
f 38//30 36//31 34//27
f 37//32 38//30 32//33
f 41//34 39//35 37//32
f 40//36 41//34 33//37
f 35//28 42//38 40//36
f 36//31 39//35 42//38
f 46//39 47//40 43//41
f 50//42 48//43 46//39
f 49//44 50//42 44//45
f 53//46 51//47 49//44
f 52//48 53//46 45//49
f 52//48 48//43 54//50
f 48//43 51//47 54//50
f 19//17 10//3 7//5
f 23//16 14//6 10//3
f 28//24 8//9 14//6
f 8//9 38//30 13//8
f 38//30 17//13 13//8
f 17//13 31//29 9//14
f 44//45 16//12 9//14
f 16//12 46//39 11//4
f 46//39 7//5 11//4
f 33//37 25//20 20//21
f 41//34 29//25 25//20
f 37//32 21//26 29//25
f 45//49 40//36 33//37
f 40//36 49//44 35//28
f 49//44 31//29 35//28
f 43//41 22//15 19//17
f 22//15 52//48 26//18
f 52//48 20//21 26//18
f 10//3 12//7 11//4
f 14//6 15//11 12//7
f 13//8 15//11 14//6
f 13//8 17//13 18//10
f 16//12 18//10 17//13
f 16//12 11//4 12//7
f 22//15 24//19 23//16
f 26//18 27//23 24//19
f 25//20 27//23 26//18
f 25//20 29//25 30//22
f 28//24 30//22 29//25
f 28//24 23//16 24//19
f 34//27 36//31 35//28
f 38//30 39//35 36//31
f 37//32 39//35 38//30
f 41//34 42//38 39//35
f 40//36 42//38 41//34
f 35//28 36//31 42//38
f 46//39 48//43 47//40
f 50//42 51//47 48//43
f 49//44 51//47 50//42
f 53//46 54//50 51//47
f 52//48 54//50 53//46
f 52//48 47//40 48//43
f 19//17 23//16 10//3
f 23//16 28//24 14//6
f 28//24 21//26 8//9
f 8//9 32//33 38//30
f 38//30 34//27 17//13
f 17//13 34//27 31//29
f 44//45 50//42 16//12
f 16//12 50//42 46//39
f 46//39 43//41 7//5
f 33//37 41//34 25//20
f 41//34 37//32 29//25
f 37//32 32//33 21//26
f 45//49 53//46 40//36
f 40//36 53//46 49//44
f 49//44 44//45 31//29
f 43//41 47//40 22//15
f 22//15 47//40 52//48
f 52//48 45//49 20//21
f 56//51 55//51 57//51
o Bottom
v -0.297149 -0.166667 0.171559
v 0.297149 -0.166667 0.171559
v -0.000000 -0.166667 -0.343119
vn 0.0000 -1.0000 -0.0000
s 1
f 59//52 58//52 60//52
